<svg xmlns="http://www.w3.org/2000/svg" viewBox="0 0 128 128">
  <rect width="128" height="128" rx="24" fill="#646cff"/>
  <path d="M78.5 39.7c-2.9 0-5.7 0.8-8.2 2.4-0.9 0.5-1.1 1.7-0.5 2.5l0.4 0.6c0.6 0.8 1.8 1 2.6 0.4 2.2-1.3 4.6-1.9 7.1-1.9 8.2 0 14.9 6.7 14.9 14.9 0 8.2-6.7 14.9-14.9 14.9-2.6 0-5.1-0.7-7.3-2-0.9-0.5-2.1-0.2-2.6 0.7l-0.4 0.6c-0.5 0.9-0.2 2.1 0.7 2.6 2.9 1.6 6.1 2.4 9.6 2.4 12.6 0 22.9-10.3 22.9-22.9 0-12.6-10.3-22.9-22.9-22.9z" fill="#fff"/>
  <path d="M49.6 88.4c2.8 0 5.6-0.8 8.1-2.4 0.9-0.5 1.1-1.7 0.5-2.5l-0.4-0.6c-0.6-0.8-1.8-1-2.6-0.4-2.2 1.3-4.6 1.9-7.1 1.9-8.2 0-14.9-6.7-14.9-14.9 0-8.2 6.7-14.9 14.9-14.9 2.6 0 5.1 0.7 7.3 2 0.9 0.5 2.1 0.2 2.6-0.7l0.4-0.6c0.5-0.9 0.2-2.1-0.7-2.6-2.9-1.6-6.1-2.4-9.6-2.4-12.6 0-22.9 10.3-22.9 22.9 0 12.6 10.3 22.9 22.9 22.9z" fill="#fff"/>
</svg>
